# xmcd
#
# Track frame offsets:
#	150
#	13193
#	28900
#	42660
#	57270
#	71949
#	89402
#	104154
#	118093
#	128929
#	143908
#	158337
#
# Disc length: 2483 seconds
#
# Revision: 0
# Processed by: cddbd v1.5.2PL0 Copyright (c) Steve Scherf et al.
# Submitted via: EasyCDDAExtractor 12.0.1.1
#
DISCID=b509b10c
DTITLE=Mannish Boys - Sinkin' Down At Larson Hill
DYEAR=2013
DGENRE=Blues
TTITLE0=It Feels Better In The Morning
TTITLE1=300 Pounds Of Joy
TTITLE2=Roseville Girl
TTITLE3=Mammoth In My Icecube
TTITLE4=Travelling Riverside Blues
TTITLE5=Can't Be Satisfied
TTITLE6=Can't Fool Myself Nomore
TTITLE7=Death Letter
TTITLE8=Won't Be Your Slave
TTITLE9=Larson Hill Blues
TTITLE10=All Your Loving
TTITLE11=Somebody's Gonna Love You
EXTD=
EXTT0=
EXTT1=
EXTT2=
EXTT3=
EXTT4=
EXTT5=
EXTT6=
EXTT7=
EXTT8=
EXTT9=
EXTT10=
EXTT11=
PLAYORDER=
